<mxfile host="Electron" modified="2025-03-11T08:07:16.344Z" agent="Mozilla/5.0 (Windows NT 10.0; Win64; x64) AppleWebKit/537.36 (KHTML, like Gecko) draw.io/24.2.5 Chrome/120.0.6099.109 Electron/28.1.0 Safari/537.36" etag="ft-31eJZR6d6PjFavyHO" version="24.2.5" type="device">
  <diagram name="Page-1" id="ZDWTbA_Sev17Ivu9E_Sn">
    <mxGraphModel dx="1430" dy="825" grid="1" gridSize="10" guides="1" tooltips="1" connect="1" arrows="1" fold="1" page="1" pageScale="1" pageWidth="1600" pageHeight="900" math="0" shadow="0">
      <root>
        <mxCell id="0" />
        <mxCell id="1" parent="0" />
        <mxCell id="bBEdqhQP7ISBkMhVD89v-5" style="edgeStyle=orthogonalEdgeStyle;rounded=1;orthogonalLoop=1;jettySize=auto;html=1;exitX=1;exitY=0.5;exitDx=0;exitDy=0;entryX=0;entryY=0.75;entryDx=0;entryDy=0;curved=0;" edge="1" parent="1" source="iujVMbT7PaKx_jRZkrUf-2" target="bBEdqhQP7ISBkMhVD89v-1">
          <mxGeometry relative="1" as="geometry" />
        </mxCell>
        <mxCell id="iujVMbT7PaKx_jRZkrUf-2" value="motion trajectory at (t)" style="rounded=1;whiteSpace=wrap;html=1;shadow=1;glass=0;shadowOpacity=50;shadowBlur=0;shadowOffsetX=1;shadowOffsetY=1;fontFamily=Times New Roman;fontSize=14;" parent="1" vertex="1">
          <mxGeometry x="80" y="210" width="160" height="60" as="geometry" />
        </mxCell>
        <mxCell id="bBEdqhQP7ISBkMhVD89v-4" style="edgeStyle=orthogonalEdgeStyle;rounded=1;orthogonalLoop=1;jettySize=auto;html=1;exitX=1;exitY=0.5;exitDx=0;exitDy=0;entryX=0;entryY=0.25;entryDx=0;entryDy=0;curved=0;" edge="1" parent="1" source="iujVMbT7PaKx_jRZkrUf-7" target="bBEdqhQP7ISBkMhVD89v-1">
          <mxGeometry relative="1" as="geometry" />
        </mxCell>
        <mxCell id="iujVMbT7PaKx_jRZkrUf-7" value="image at (t)" style="rounded=1;whiteSpace=wrap;html=1;shadow=1;glass=0;shadowOpacity=50;shadowBlur=0;shadowOffsetX=1;shadowOffsetY=1;fontFamily=Times New Roman;fontSize=14;" parent="1" vertex="1">
          <mxGeometry x="80" y="130" width="160" height="60" as="geometry" />
        </mxCell>
        <mxCell id="iujVMbT7PaKx_jRZkrUf-15" value="melt flow&amp;nbsp;&lt;div&gt;temperature at (t)&lt;/div&gt;" style="rounded=1;whiteSpace=wrap;html=1;shadow=1;glass=0;shadowOpacity=50;shadowBlur=0;shadowOffsetX=1;shadowOffsetY=1;fontFamily=Times New Roman;fontSize=14;fillColor=#f5f5f5;fontColor=#333333;strokeColor=#666666;fontStyle=2" parent="1" vertex="1">
          <mxGeometry x="560" y="160" width="160" height="80" as="geometry" />
        </mxCell>
        <mxCell id="bBEdqhQP7ISBkMhVD89v-6" style="edgeStyle=orthogonalEdgeStyle;rounded=0;orthogonalLoop=1;jettySize=auto;html=1;exitX=1;exitY=0.5;exitDx=0;exitDy=0;entryX=0;entryY=0.5;entryDx=0;entryDy=0;" edge="1" parent="1" source="bBEdqhQP7ISBkMhVD89v-1" target="iujVMbT7PaKx_jRZkrUf-15">
          <mxGeometry relative="1" as="geometry" />
        </mxCell>
        <mxCell id="bBEdqhQP7ISBkMhVD89v-1" value="area-of-interest&amp;nbsp;&lt;div&gt;sampler&lt;/div&gt;" style="rounded=1;whiteSpace=wrap;html=1;shadow=1;glass=0;shadowOpacity=50;shadowBlur=0;shadowOffsetX=1;shadowOffsetY=1;fontFamily=Times New Roman;fontSize=14;" vertex="1" parent="1">
          <mxGeometry x="320" y="160" width="160" height="80" as="geometry" />
        </mxCell>
        <mxCell id="bBEdqhQP7ISBkMhVD89v-3" value="" style="edgeStyle=orthogonalEdgeStyle;rounded=0;orthogonalLoop=1;jettySize=auto;html=1;" edge="1" parent="1" source="bBEdqhQP7ISBkMhVD89v-2" target="bBEdqhQP7ISBkMhVD89v-1">
          <mxGeometry relative="1" as="geometry" />
        </mxCell>
        <mxCell id="bBEdqhQP7ISBkMhVD89v-2" value="imaging device&amp;nbsp;&lt;div&gt;calibration&lt;/div&gt;" style="rounded=1;whiteSpace=wrap;html=1;shadow=1;glass=0;shadowOpacity=50;shadowBlur=0;shadowOffsetX=1;shadowOffsetY=1;fontFamily=Times New Roman;fontSize=14;fillColor=#f5f5f5;fontColor=#333333;strokeColor=#666666;fontStyle=2" vertex="1" parent="1">
          <mxGeometry x="320" y="40" width="160" height="70" as="geometry" />
        </mxCell>
      </root>
    </mxGraphModel>
  </diagram>
</mxfile>
